<svg width="298" height="157" viewBox="0 0 298 157" fill="none" xmlns="http://www.w3.org/2000/svg">
<path d="M46.2494 156.197C46.2494 156.197 13.8452 162.148 3.5301 139.634C-9.85262 110.426 17.6417 88.28 38.7287 92.406C60.5674 96.679 69.5272 76.5144 80.8342 56.351C93.3169 34.0895 108.662 11.8279 147.355 22.4498C153.778 24.2126 163.587 22.1858 174.532 20.1579C198.922 15.6399 228.954 11.123 239.74 48.5466C243.455 61.4392 256.619 62.8591 275.729 71.0398C313.128 87.0505 296.028 156.468 269.305 156.739C242.581 157.012 46.2494 156.197 46.2494 156.197Z" fill="#3E4F88"/>
<path d="M206.945 156.585H226.03V85.4692H206.945V156.585Z" fill="#82B479"/>
<path d="M198.034 156.585H212.058V85.4692H198.034V156.585Z" fill="#A8D29F"/>
<path d="M208.412 149.051C208.412 150.779 207.01 152.181 205.282 152.181C203.553 152.181 202.151 150.779 202.151 149.051C202.151 147.321 203.553 145.921 205.282 145.921C207.01 145.921 208.412 147.321 208.412 149.051Z" fill="#82B479"/>
<path d="M234.94 156.585H254.025V85.4692H234.94V156.585Z" fill="#699DEE"/>
<path d="M226.03 156.585H240.053V85.4692H226.03V156.585Z" fill="#AFCDFB"/>
<path d="M236.407 149.051C236.407 150.779 235.006 152.181 233.277 152.181C231.548 152.181 230.147 150.779 230.147 149.051C230.147 147.321 231.548 145.921 233.277 145.921C235.006 145.921 236.407 147.321 236.407 149.051Z" fill="#699DEE"/>
<path d="M236.407 130.033H230.147V92.7067H236.407V130.033Z" fill="white"/>
<path d="M262.607 156.585H281.693V85.4692H262.607V156.585Z" fill="#D86713"/>
<path d="M253.697 156.585H267.72V85.4692H253.697V156.585Z" fill="#F1A34F"/>
<path d="M264.075 149.051C264.075 150.779 262.673 152.181 260.944 152.181C259.215 152.181 257.814 150.779 257.814 149.051C257.814 147.321 259.215 145.921 260.944 145.921C262.673 145.921 264.075 147.321 264.075 149.051Z" fill="#D86713"/>
<path d="M264.075 130.033H257.814V92.7067H264.075V130.033Z" fill="white"/>
<path d="M201.915 130.511H208.176V93.1844H201.915V130.511Z" fill="white"/>
<path d="M161.131 71.689L167.86 151.696C167.86 151.696 168.565 156.546 164.957 156.555C159.026 156.568 135.435 156.555 135.435 156.555C135.435 156.555 139.899 155.545 139.845 153.273C139.781 150.596 131.98 70.9318 131.98 70.9318L161.131 71.689Z" fill="#D86713"/>
<path d="M133.52 155.102C134.687 155.106 157.219 155.177 162.996 155.102C165.514 155.071 165.955 152.864 165.976 151.436C165.986 150.751 165.899 150.245 165.899 150.245L165.724 148.166L165.278 142.866L164.885 138.183L164.378 132.166L163.951 127.087L159.171 70.2369L130.02 69.4796C130.02 69.4796 133.305 102.818 135.629 127.087C135.889 129.791 136.135 132.383 136.363 134.803C136.438 135.576 136.508 136.331 136.578 137.067C136.793 139.363 136.99 141.472 137.162 143.334C137.252 144.315 137.335 145.227 137.411 146.062C137.707 149.335 137.881 151.424 137.883 151.822C137.885 152.053 137.864 152.269 137.827 152.47C137.348 155.019 133.959 155.102 133.52 155.102Z" fill="#EE9849"/>
<path d="M91.9717 28.1516H231.925L215.535 93.9873L213.291 103.004L205.658 133.668H63.8351L91.9717 28.1516Z" fill="#F1A34F"/>
<path d="M231.925 28.1516L234.197 28.9089L208.677 135.959L205.657 133.67L231.925 28.1516Z" fill="#EE9849"/>
<path d="M208.677 135.959H67.7278L63.8355 133.669H205.657L208.677 135.959Z" fill="#D86713"/>
<path d="M128.663 156.585H159.181V155.135H128.663V156.585Z" fill="#F1A34F"/>
<path d="M136.42 135.959L136.578 137.067L165.278 142.866L164.885 138.183L164.696 135.959H136.42Z" fill="#D86713"/>
<path d="M155.921 155.135H149.088C141.662 155.128 134.18 155.105 133.52 155.102C133.959 155.102 137.348 155.019 137.827 152.47C137.863 152.275 137.883 152.067 137.883 151.844C137.883 151.836 137.883 151.829 137.883 151.822C137.881 151.424 137.708 149.335 137.411 146.062L165.976 151.436C165.955 152.864 165.514 155.071 162.996 155.102C161.519 155.121 158.95 155.131 155.921 155.135Z" fill="#E58433"/>
<path d="M152.741 155.136C151.545 155.136 150.317 155.136 149.088 155.135H155.921C154.904 155.136 153.836 155.136 152.741 155.136Z" fill="#E78B37"/>
<path d="M205.659 133.668L205.657 133.669L205.659 133.668Z" fill="#BBA767"/>
<path d="M205.658 133.668L145.2 112.939L210.821 112.927L206.602 129.873L205.657 133.669" fill="#E78B37"/>
<path d="M205.658 133.668L205.657 133.669L206.602 129.873L205.658 133.668Z" fill="#E58433"/>
<path d="M91.9718 28.1515H231.925L210.833 112.927L69.264 112.955L91.9718 28.1515Z" fill="#F1A34F"/>
<path d="M130.987 123.675C131.391 121.594 133.404 119.908 135.485 119.908C137.564 119.908 138.923 121.594 138.518 123.675C138.114 125.754 136.101 127.44 134.02 127.44C131.94 127.44 130.582 125.754 130.987 123.675Z" fill="#D86713"/>
<path d="M75.8648 109.28H206.904L221.745 50.1614L222.882 45.6289L223.853 41.7613L226.129 32.6941H96.9774L94.4784 41.7613L93.4127 45.6289L92.1627 50.1614L75.8648 109.28Z" fill="#E9F3FE"/>
<path d="M96.9775 32.694H226.129L223.853 41.7613H94.4785L96.9775 32.694Z" fill="#A8D29F"/>
<path d="M219.935 35.6586C220.561 35.6586 220.942 36.1664 220.786 36.7923C220.63 37.4182 219.995 37.926 219.369 37.926C218.743 37.926 218.362 37.4182 218.518 36.7923C218.674 36.1664 219.309 35.6586 219.935 35.6586Z" fill="#E9F3FE"/>
<path d="M216.169 35.6586C216.794 35.6586 217.175 36.1664 217.019 36.7923C216.863 37.4182 216.23 37.926 215.604 37.926C214.977 37.926 214.596 37.4182 214.752 36.7923C214.909 36.1664 215.543 35.6586 216.169 35.6586Z" fill="#E9F3FE"/>
<path d="M210.697 36.7923C210.853 36.1664 211.487 35.6586 212.114 35.6586C212.74 35.6586 213.121 36.1664 212.964 36.7923C212.808 37.4182 212.174 37.926 211.548 37.926C210.922 37.926 210.541 37.4182 210.697 36.7923Z" fill="#E9F3FE"/>
<path d="M28.5593 148.434C28.5593 148.434 26.8912 149.98 27.2167 151.078C27.5421 152.177 29.0476 152.909 29.251 154.252C29.4544 155.595 30.268 156.326 31.0004 156.326C31.7326 156.326 34.4918 156.326 34.4918 156.326C34.4918 156.326 35.0308 155.382 33.7288 155.097C32.427 154.812 31.9361 153.235 32.0175 151.769C32.0988 150.305 31.8954 148.353 31.8954 148.353L29.1289 147.701L28.5593 148.434Z" fill="#233862"/>
<path d="M58.8011 156.324H49.53C49.4495 156.307 49.3882 156.29 49.3493 156.27C48.7313 155.961 48.924 153.597 48.9987 152.864C49.0132 152.728 49.0233 152.648 49.0233 152.648C49.0233 152.648 52.2787 150.045 52.7259 152.039C52.7396 152.101 52.7565 152.162 52.7743 152.223C53.3372 154.087 55.8641 154.935 57.3233 155.171C58.436 155.352 58.7255 155.999 58.8011 156.324Z" fill="#233862"/>
<path d="M56.9359 102.949C56.9359 102.949 56.4416 109.116 55.8606 116.53C55.071 126.6 54.1214 138.97 54.0274 141.313C53.8651 145.383 53.2133 151.892 53.2133 151.892C53.2133 151.892 51.6681 153.439 48.5753 152.786C48.5753 152.786 45.8194 143.495 45.0322 133.664C45.0199 133.502 45.0078 133.34 44.9954 133.177C44.2632 123.169 43.1245 102.095 43.1245 102.095L56.9359 102.949Z" fill="#699DEE"/>
<path d="M56.9359 102.949C56.9359 102.949 56.4416 109.116 55.8606 116.53L45.0322 133.664C45.0199 133.502 45.0078 133.34 44.9954 133.177C44.2632 123.169 43.1245 102.095 43.1245 102.095L56.9359 102.949Z" fill="#4A75CB"/>
<path d="M54.6786 103.682C54.6786 103.682 45.7687 126.017 39.9101 136.514C34.0517 147.01 32.221 149.94 32.221 149.94C32.221 149.94 28.8645 148.597 28.5593 147.681C28.5593 147.681 30.7996 127.418 34.723 122.477C36.94 119.686 39.544 111.31 39.666 108.38C39.7882 105.451 40.4595 99.6535 40.4595 99.6535L54.6786 103.682Z" fill="#699DEE"/>
<path d="M63.6889 97.5153L64.1982 98.5299C64.1982 98.5299 66.7878 98.8918 66.075 101.591C66.075 101.591 65.691 102.703 64.9768 102.351C64.2627 102 64.6145 102.029 63.5909 101.557C62.5675 101.083 61.9752 100.175 62.204 99.3406L62.0401 98.4575L63.6889 97.5153Z" fill="#FFB27D"/>
<path d="M50.109 69.2034C50.5052 66.8648 50.5172 65.4783 50.5172 65.4783L45.9966 61.8356C46.1646 66.8447 42.9545 69.2535 42.9545 69.2535C42.9545 69.2535 48.9786 72.2191 52.4607 71.1211C52.4607 71.1211 51.6034 70.0253 50.109 69.2034Z" fill="#FFB27D"/>
<path d="M51.5821 65.3959C51.5821 65.3959 45.831 66.3514 45.2913 62.761C44.7515 59.1696 43.6455 56.8755 47.2947 56.1138C50.9436 55.352 51.8647 56.6138 52.3363 57.7686C52.8081 58.9235 53.0642 65.0551 51.5821 65.3959Z" fill="#FFB27D"/>
<path d="M45.3292 63.0083C45.3292 63.0083 45.4453 58.1985 50.6854 57.4268C54.2746 56.8978 52.1009 53.8988 51.6907 53.4244C51.6907 53.4244 48.9469 53.9478 46.1386 54.5636C40.2445 55.8577 44.7063 62.2933 45.3292 63.0083Z" fill="#163560"/>
<path d="M63.0855 98.9264C63.8543 98.1368 64.4251 97.11 64.4251 97.11C64.4251 97.11 57.8909 88.9916 57.3597 88.1497C56.8286 87.3078 52.8601 73.805 52.8601 73.805L42.8248 71.7715C42.8248 71.7715 51.2013 89.0529 52.589 91.1599C54.8821 94.6411 61.7424 99.8228 61.7424 99.8228C61.7424 99.8228 62.4817 99.5456 63.0855 98.9264Z" fill="#82B479"/>
<path d="M57.3201 103.462C57.2153 103.55 57.0936 103.601 56.9542 103.601C55.6468 103.585 51.834 104.311 48.6079 103.979C45.8882 103.718 43.4811 102.912 40.896 101.754C40.5527 101.6 39.7627 101.178 39.7804 100.794C39.7921 100.374 39.8337 99.7648 39.8862 98.9975C40.0691 96.3293 40.388 91.74 40.0771 86.4447C40.0212 85.4591 39.9917 84.4813 39.9883 83.5181C39.9616 76.3429 41.3601 69.9952 44.2192 67.8593C44.4636 67.6844 45.9873 68.4528 47.3649 69.1322C48.6378 69.7602 49.5279 69.7458 50.7305 69.5019L52.3159 70.6489C53.7805 72.0087 55.3847 73.8573 56.082 76.6636C56.6753 79.0524 57.0234 83.3599 57.2153 87.8222C57.3024 89.8446 57.3726 91.8848 57.3903 93.8203V93.8904C57.4072 94.082 57.4072 94.2913 57.4072 94.484C57.4774 99.4519 57.4072 103.392 57.3201 103.462Z" fill="#A8D29F"/>
<path d="M39.8862 98.9975C40.0691 96.3293 40.388 91.74 40.077 86.4447C40.0211 85.4591 39.9917 84.4814 39.9883 83.5181C41.1793 80.6293 42.1529 78.5335 42.1529 78.5335H45.1551C45.1551 78.5335 47.3561 93.5675 39.8862 98.9975Z" fill="#82B479"/>
<path d="M34.0453 99.9319L33.4754 100.914C33.4754 100.914 34.5919 103.278 31.9432 104.163C31.9432 104.163 30.8035 104.45 30.7061 103.659C30.6086 102.87 30.7766 103.18 30.6114 102.065C30.446 100.95 30.8815 99.9564 31.7043 99.6903L32.3535 99.0689L34.0453 99.9319Z" fill="#FFB27D"/>
<path d="M32.5343 100.2C33.6154 100.411 34.7874 100.326 34.7874 100.326C34.7874 100.326 37.9969 90.4115 38.4099 89.505C38.8231 88.5996 47.9433 77.8797 47.9433 77.8797L44.1439 68.3715C44.1439 68.3715 34.2794 84.8489 33.2778 87.1641C31.6226 90.9906 31.0482 99.5689 31.0482 99.5689C31.0482 99.5689 31.6852 100.035 32.5343 100.2Z" fill="#A8D29F"/>
<path d="M147.696 95.9195H86.5205L107.433 11.3112H168.609L147.696 95.9195Z" fill="#AFCDFB"/>
<path d="M138.558 90.6408H77.3827L98.296 6.03256H159.471L138.558 90.6408Z" fill="#C0D8F9"/>
<path d="M128.657 84.6072H67.4812L88.3944 -7.62939e-06H149.57L128.657 84.6072Z" fill="#D4E3F4"/>
<path d="M158.225 11.3112L138.87 90.1342L88.0118 90.6409L140.406 91.7935L158.225 11.3112Z" fill="#699DEE"/>
<path d="M148.064 6.03259L129.676 84.1016L78.8179 84.6072L130.539 85.8857L148.064 6.03259Z" fill="#699DEE"/>
<path d="M103.169 29.3209H86.0611L91.4169 7.82891H108.526L103.169 29.3209Z" fill="#E9F3FE"/>
<path d="M142.228 10.7978H111.575L112.329 7.82881H142.982L142.228 10.7978Z" fill="#AFCDFB"/>
<path d="M140.846 16.8939H110.192L110.946 13.9249H141.6L140.846 16.8939Z" fill="#AFCDFB"/>
<path d="M139.4 22.9898H108.746L109.501 20.0209H140.154L139.4 22.9898Z" fill="#AFCDFB"/>
<path d="M137.703 29.0859H107.05L107.804 26.1169H138.457L137.703 29.0859Z" fill="#AFCDFB"/>
<path d="M137.703 35.4336H81.5896L82.3437 32.4635H138.457L137.703 35.4336Z" fill="#AFCDFB"/>
<path d="M136.205 41.7802H80.0917L80.8459 38.8113H136.959L136.205 41.7802Z" fill="#AFCDFB"/>
<path d="M134.132 48.9286H78.0178L78.772 45.9597H134.886L134.132 48.9286Z" fill="#AFCDFB"/>
<path d="M132.246 55.1004H76.1325L76.8867 52.1315H133L132.246 55.1004Z" fill="#AFCDFB"/>
<path d="M104.961 32.7185C104.943 32.7742 104.92 32.8287 104.89 32.8777C104.552 33.4212 98.9909 33.4479 98.3561 32.9924C98.0721 32.7875 97.9852 29.9745 97.9763 26.9254C97.9652 23.1568 98.0721 19.0286 98.0721 19.0286C98.0721 19.0286 100.248 20.0387 100.355 21.2815C100.461 22.5243 99.5455 29.9934 100.181 30.45C100.817 30.9066 103.748 30.9656 104.726 31.2529C104.726 31.2529 105.141 32.1472 104.961 32.7185Z" fill="#A8D2A0"/>
<path d="M99.3349 10.4603C98.9541 10.0638 98.3327 10.026 97.9318 9.99814C98.0476 9.90682 98.2536 9.89348 98.2536 9.89348C98.013 9.82554 97.4317 9.99814 97.4317 9.99814C97.4317 9.99814 95.4884 8.6629 94.171 11.271C94.171 11.271 94.3637 11.0862 94.622 10.8813C93.8614 12.3813 94.1153 14.8324 95.8159 15.4828C96.9206 15.906 103.235 14.5206 99.3349 10.4603Z" fill="#163560"/>
<path d="M98.1579 19.6522C98.1679 19.6578 96.9819 20.091 96.1757 19.7547C95.4162 19.4373 95.0353 18.3515 95.0464 18.3504C95.3872 18.327 95.5431 17.8827 95.7915 15.9149L95.9373 15.9639L98.404 16.7935C98.404 16.7935 98.2437 17.582 98.1446 18.3326C98.061 18.9629 98.0221 19.5654 98.1579 19.6522Z" fill="#E49963"/>
<path d="M98.4041 16.7935C98.4041 16.7935 98.2437 17.582 98.1446 18.3326C96.7325 18.1099 96.1512 16.72 95.9374 15.9639L98.4041 16.7935Z" fill="#D68D5D"/>
<path d="M95.7124 15.6543C95.7124 15.6543 95.121 14.3847 95.0731 13.358C95.0386 12.6263 95.748 10.0182 98.3662 10.7465C98.3662 10.7465 99.1313 10.9236 99.795 11.5093C100.324 11.976 101.05 12.9292 99.815 15.1242L99.4709 15.8748L95.7124 15.6543Z" fill="#163560"/>
<path d="M98.7849 17.5653C98.7849 17.5653 95.4261 17.1856 95.6945 15.0975C95.9629 13.0094 95.7101 11.5539 97.8661 11.7076C100.022 11.8613 100.336 12.7121 100.416 13.4304C100.495 14.1498 99.6657 17.6099 98.7849 17.5653Z" fill="#E49963"/>
<path d="M99.0065 22.2949C98.9787 22.0488 99.5032 21.9352 99.5989 22.1635C99.7771 22.59 99.7582 23.0967 99.7983 23.5065C99.9141 24.6803 99.4486 26.2048 99.4486 26.2048L99.0065 22.2949Z" fill="#82B479"/>
<path d="M100.466 12.2565C100.031 11.5628 99.6223 11.6485 99.3773 11.8078C98.7938 10.6318 96.3015 11.9002 96.3015 11.9002C95.8827 13.3702 94.6912 14.0874 94.6912 14.0874C94.6912 14.0874 95.2535 14.5439 96.7091 14.3647C97.8539 14.2232 98.8628 12.7499 99.2415 12.1285C99.4174 12.3323 99.7849 12.7955 99.8595 13.2132C99.9575 13.7666 99.8907 14.8702 100.215 14.8747C100.215 14.8747 101.121 13.3 100.466 12.2565Z" fill="#163560"/>
<path d="M98.2047 16.2033C98.2047 16.2033 98.2325 16.4761 98.8974 16.5207C98.8974 16.5207 99.4564 16.5586 99.4765 16.2646C99.4765 16.2646 98.9664 15.9884 98.2047 16.2033Z" fill="white"/>
<path d="M104.961 32.7185C104.943 32.7742 104.92 32.8287 104.89 32.8777C104.552 33.4212 98.991 33.4479 98.3562 32.9924C98.0722 32.7875 97.9798 29.2918 98.7627 26.2761C98.9486 28.0824 98.6079 31.6951 99.5544 31.9891C100.626 32.3243 103.553 32.3309 104.961 32.7185Z" fill="#82B479"/>
<path d="M99.6357 26.3719C97.4285 32.7442 98.4341 33.8979 97.6456 34.4491L96.9786 34.644C96.1601 35.1864 96.2425 34.4113 93.8003 35.1129C92.6364 35.4481 91.1424 35.898 89.8605 36.1118C89.3777 36.192 88.9252 36.2399 88.5316 36.2354C87.7772 36.2254 87.2394 36.0249 87.1237 35.4993C86.7873 33.9725 89.812 30.4267 89.5239 27.7016C89.5216 27.6794 89.5193 27.6548 89.5176 27.6315C89.5018 27.3943 89.5278 27.1281 89.5892 26.8397C89.8981 25.3808 91.1071 23.3585 92.3092 21.6535C93.6366 19.7726 94.954 18.2792 95.0453 18.3504C97.639 20.3817 98.0722 19.0286 98.0722 19.0286C98.0722 19.0286 100.389 24.1981 99.6357 26.3719Z" fill="#A8D2A0"/>
<path d="M97.2136 34.58C96.3962 35.1224 96.2425 34.4108 93.8003 35.1124C92.6364 35.4476 91.1424 35.8975 89.8605 36.1113C89.216 36.1402 88.7342 36.1759 88.5316 36.2349C87.7772 36.2249 87.2394 36.0244 87.1237 35.4988C86.7873 33.972 89.812 30.4262 89.5239 27.7011C89.5216 27.6788 89.5193 27.6543 89.5176 27.631C89.4972 27.3637 89.5237 27.102 89.5892 26.8392C89.8674 25.7367 90.849 24.6275 92.0118 22.9782C92.5507 23.7188 97.3383 23.5617 95.385 29.9351C94.7858 31.8884 97.1234 32.992 97.2136 34.58Z" fill="#82B479"/>
<path d="M95.0465 18.3504C95.0465 18.3504 91.2271 17.9072 90.3055 19.6578C89.3838 21.4084 88.7561 27.8998 89.5025 29.9745C90.2489 32.0481 95.5843 35.4112 96.2013 35.5983C96.8183 35.7854 97.3383 34.8644 97.3261 34.7553C97.3127 34.6473 91.9978 29.068 92.0888 28.5724C92.1799 28.0768 95.0465 18.3504 95.0465 18.3504Z" fill="#A8D2A0"/>
<path d="M222.618 146.297L221.254 152.042L219.211 152.03L219.136 146.297H222.618Z" fill="#E49963"/>
<path d="M205.432 146.542L201.551 152.042L200.039 150.1L202.374 145.786L205.432 146.542Z" fill="#E49963"/>
<path d="M215.523 70.8049C216.228 70.404 217.073 70.3605 217.664 70.395C217.512 70.238 217.212 70.1812 217.212 70.1812C217.578 70.1267 218.397 70.4897 218.397 70.4897C223.497 68.5252 224.298 76.0334 224.191 77.7784C224.084 79.5224 225.905 80.0926 228.558 81.4668C233.62 84.0894 234.065 87.6007 234.065 87.6007C234.026 87.6241 233.984 87.6508 233.941 87.6809C233.689 87.2555 233.173 86.4559 232.736 86.3356C232.753 86.3746 233.252 87.4359 233.438 88.0439C231.944 89.1798 229.15 91.6966 227.203 93.4818C227.212 93.1332 227.198 92.6377 227.071 92.376L226.83 93.8248C225.788 94.7825 225.07 95.4563 225.07 95.4563C225.198 94.0464 218.694 86.6073 215.301 84.3801C214.475 83.164 214.181 81.0147 214.158 80.8465C214.301 82.5492 214.593 83.5047 214.853 84.0426C211.98 81.3977 213.653 71.8673 215.523 70.8049Z" fill="#163560"/>
<path d="M215.501 84.4903C215.485 84.4981 217.14 85.3578 218.385 85.017C219.556 84.6974 220.321 83.1795 220.306 83.1751C219.809 83.0771 219.667 82.3955 219.678 79.4667L219.453 79.5101L215.682 80.2573C215.682 80.2573 215.768 81.4434 215.771 82.5614C215.773 83.5002 215.716 84.39 215.501 84.4903Z" fill="#E49963"/>
<path d="M215.682 80.2574C215.682 80.2574 215.768 81.4434 215.771 82.5615C217.88 82.5025 218.996 80.577 219.452 79.5101L215.682 80.2574Z" fill="#D68D5D"/>
<path d="M219.843 79.1003C219.843 79.1003 220.948 77.353 221.213 75.8585C221.403 74.7928 220.859 70.8394 216.887 71.4084C216.887 71.4084 215.733 71.522 214.648 72.2548C213.785 72.8372 212.541 74.0945 213.934 77.5445L214.294 78.7105L219.843 79.1003Z" fill="#163560"/>
<path d="M200.655 148.592L202.652 148.653L204.816 148.719C204.816 148.719 209.813 143.155 212.616 134.237C212.682 134.03 212.751 133.82 212.823 133.608C214.358 129.135 217.537 123.52 219.213 118.438C219.481 117.629 219.72 116.867 219.935 116.145C220.004 115.915 220.071 115.688 220.134 115.465C221.369 111.173 221.727 108.355 222.056 105.345L209.956 105.442C209.956 105.442 208.001 125.998 200.655 148.592Z" fill="#2B478B"/>
<path d="M211.649 98.4887C211.679 104.247 210.804 106.718 210.804 106.718C210.804 106.718 215.986 109.351 222.144 107.413C222.217 107.39 226.776 106.476 226.776 106.476C226.672 106.242 225.415 102.258 225.315 102.044C224.014 99.2526 223.836 97.8984 223.681 97.0398C223.395 95.4373 223.389 93.7791 223.532 92.2156C223.907 88.0762 225.025 84.6395 225.025 84.6395C223.347 84.2576 221.776 83.5871 220.03 82.9323C219.628 83.4324 218.399 83.9557 217.335 83.9312C216.107 83.9045 215.71 83.3789 215.773 82.8065C214.466 83.5337 213.423 84.2208 213.423 84.2208C212.312 86.1507 210.059 88.0239 209.895 90.985C209.855 91.7122 211.648 98.3272 211.649 98.4887Z" fill="#E7F1FD"/>
<path d="M204.623 89.9337C206.4 87.859 211.002 83.3577 215.752 82.8065L211.654 90.7901C211.654 90.7901 211.423 92.1588 210.209 92.9561C207.237 94.9106 203.456 95.7736 203.456 95.7736C203.456 95.7736 200.897 94.6566 197.398 92.0931C196.299 91.2879 194.369 88.2187 194.369 88.2187L194.89 86.4759C194.89 86.4759 198.167 88.3089 199.337 88.8368C200.004 89.1386 201.54 89.8569 202.622 90.3647C203.311 90.6888 204.129 90.5117 204.623 89.9337Z" fill="#699DEE"/>
<path d="M214.978 81.3153C214.978 81.3153 219.969 81.3977 219.973 78.2885C219.976 75.1792 220.623 73.0956 217.436 72.9107C214.249 72.727 213.628 73.913 213.374 74.9509C213.122 75.9877 213.68 81.214 214.978 81.3153Z" fill="#E49963"/>
<path d="M215.163 72.835C215.163 72.835 216.529 76.4833 218.626 77.0223C220.724 77.5612 221.634 77 221.634 77C221.634 77 220.025 75.7215 219.692 73.4909C219.692 73.4909 216.193 71.0988 215.163 72.835Z" fill="#163560"/>
<path d="M215.501 73.1313C215.501 73.1313 214.48 73.9453 214.232 74.7371C213.982 75.5289 213.871 77.1593 213.396 77.1036C213.396 77.1036 212.365 74.6246 213.524 73.2215C214.751 71.7337 215.501 73.1313 215.501 73.1313Z" fill="#163560"/>
<path d="M194.89 86.4759C194.89 86.4759 194.187 83.9402 191.398 84.2988C191.078 84.399 190.143 84.7721 190.741 85.7721C191.181 86.5104 191.372 86.1296 192.065 87.1218C192.758 88.113 193.511 88.3368 194.369 88.2187L194.89 86.4759Z" fill="#E49963"/>
<path d="M221.322 151.72C221.322 151.72 221.158 152.858 221.583 154.076C221.583 154.076 221.917 155.599 220.417 155.628C218.916 155.656 218.548 155.514 218.718 154.58C218.888 153.646 219.211 152.03 219.211 152.03L221.322 151.72Z" fill="#E49963"/>
<path d="M218.576 156.278C218.576 156.278 218.608 156.299 218.671 156.329H221.607C221.664 156.299 221.691 156.278 221.691 156.278C221.86 155.515 221.583 154.076 221.583 154.076C219.884 155.633 218.82 154.037 218.82 154.037C218.544 154.703 218.576 156.278 218.576 156.278Z" fill="#D86713"/>
<path d="M196.423 154.733C196.423 154.733 199.189 151.662 200.039 150.1L202.096 151.154L197.497 155.472L196.422 155.331L196.423 154.733Z" fill="#E49963"/>
<path d="M194.705 156.329H198.492C198.856 156.056 199.197 155.425 199.62 154.579C199.845 154.128 200.353 153.879 200.873 153.742V156.3H201.658L202.402 153.581C202.891 152.68 202.441 151.864 202.096 151.153C201.695 151.152 200.617 151.426 198.573 153.729C197.9 154.485 197.159 154.756 196.423 154.733C196.412 154.739 196.402 154.745 196.393 154.748C195.159 155.303 194.807 155.992 194.705 156.329Z" fill="#D86713"/>
<path d="M215.773 82.8065C215.773 82.8065 212.886 89.9415 212.8 91.3848C212.715 92.8292 212.46 114.998 212.46 114.998C212.46 114.998 212.631 116.017 210.677 115.593C208.723 115.169 208.214 114.743 208.214 114.743C208.214 114.743 210.083 101.068 209.573 96.3115C209.062 91.5552 213.48 83.7976 213.48 83.7976L215.773 82.8065Z" fill="#699DEE"/>
<path d="M202.652 148.653L204.816 148.719C204.816 148.719 209.813 143.155 212.616 134.237C212.682 134.03 212.751 133.82 212.823 133.608C214.358 129.135 217.537 123.52 219.213 118.438C219.481 117.629 219.72 116.867 219.935 116.145C220.004 115.915 220.071 115.688 220.134 115.465L218.352 114.112C218.352 114.112 213.001 122.776 211.345 130.93C209.907 138.011 204.145 146.534 202.652 148.653Z" fill="#233862"/>
<path d="M218.166 131.688C218.135 135.654 218.336 144.77 218.852 148.543H220.769C221.828 148.543 222.356 148.529 222.356 148.529C223.652 141.967 224.573 136.537 225.245 131.859C225.795 128.02 226.284 124.728 226.66 121.895C227.039 119.043 227.303 116.655 227.396 114.639C227.411 114.32 227.422 114.012 227.428 113.711C227.434 113.41 227.436 113.116 227.433 112.832L216.977 111.813C217.108 118.76 218.183 129.384 218.166 131.688Z" fill="#2B478B"/>
<path d="M220.769 148.543C221.828 148.543 222.356 148.529 222.356 148.529C223.652 141.967 224.573 136.537 225.245 131.859C225.795 128.02 226.284 124.728 226.66 121.895C227.039 119.043 227.303 116.655 227.396 114.639L223.56 116.895C223.56 116.895 226.009 117.759 225.074 124.299C224.14 130.84 222.07 147.618 220.769 148.543Z" fill="#233862"/>
<path d="M220.275 114.574C220.275 114.574 221.012 117.234 223.56 116.895C226.108 116.555 229.732 115.026 229.732 115.026C229.732 115.026 228.642 111.585 227.288 107.065C225.649 101.592 223.62 94.5375 222.663 90.0874C222.395 88.8402 222.212 87.7989 222.143 87.0528L220.03 82.9512C220.03 82.9512 216.878 90.0262 216.708 91.8102C216.537 93.5931 220.275 114.574 220.275 114.574Z" fill="#699DEE"/>
<path d="M220.388 95.5475C220.502 98.4352 221.181 104.041 227.24 107.042C227.256 107.049 227.273 107.058 227.288 107.065C225.649 101.592 223.62 94.5375 222.663 90.0874C221.551 91.7501 220.326 93.9573 220.388 95.5475Z" fill="#4A75CB"/>
<path d="M193.914 79.6037L192.004 81.5146L184.404 73.9152L186.315 72.0042L193.914 79.6037Z" fill="#2B478B"/>
<path d="M233.872 120.805L233.205 121.472C231.893 122.784 229.767 122.784 228.455 121.472L191.27 84.2865C189.958 82.9746 189.958 80.8487 191.27 79.5368L191.937 78.8698C193.248 77.559 195.375 77.559 196.686 78.8698L233.872 116.056C235.183 117.367 235.183 119.494 233.872 120.805Z" fill="#C65447"/>
<path d="M182.829 70.4284C171.785 81.4735 153.878 81.4735 142.835 70.4284C131.791 59.3845 131.791 41.4784 142.835 30.4345C153.878 19.3906 171.785 19.3906 182.829 30.4345C193.872 41.4784 193.872 59.3845 182.829 70.4284ZM140.359 27.9589C127.948 40.3704 127.948 60.4926 140.359 72.9041C152.77 85.3155 172.893 85.3155 185.304 72.9041C197.716 60.4926 197.716 40.3704 185.304 27.9589C172.893 15.5486 152.77 15.5486 140.359 27.9589Z" fill="#C65447"/>
<path d="M222.819 91.5441L220.029 82.9513C220.037 82.9546 223.553 83.9981 225.322 84.8912C225.322 84.8912 226.427 86.3167 227.112 89.6052C227.112 89.6052 227.835 97.5009 226.221 100.389C226.221 100.389 221.124 101.408 212.97 98.6045V96.7358C212.97 96.7358 221.889 97.2035 223.716 97.4162L222.819 91.5441Z" fill="#E49963"/>
<path d="M220.029 82.9512C220.029 82.9512 225.201 83.3154 226.447 86.0906C227.693 88.8646 228.09 98.0955 226.504 100.813C226.504 100.813 224.321 101.435 220.46 100.713C220.412 100.705 220.365 100.695 220.318 100.686C220.318 100.686 219.086 97.6701 220.19 97.0766C220.19 97.0766 223.446 97.2458 223.106 96.1701C222.767 95.0943 220.029 82.9512 220.029 82.9512Z" fill="#699DEE"/>
<path d="M213.884 97.2336C213.884 97.2336 213.174 96.3728 213.022 95.493C212.871 94.6143 212.401 93.9618 211.174 93.8014C209.948 93.6399 209.421 93.6221 209.424 93.9684C209.427 94.3137 210.425 96.7269 212.185 98.1679C213.946 99.6101 213.884 97.2336 213.884 97.2336Z" fill="#E49963"/>
<path d="M146.198 59.732L148.07 52.1571L148.236 51.9922L146.381 59.5494L146.198 59.732Z" fill="#CFE1FD"/>
<path d="M177.778 28.1516H172.075L175.225 25.0033C176.463 25.6069 177.668 26.3074 178.826 27.1037L177.778 28.1516Z" fill="#F3F7FB"/>
<path d="M173.236 32.6941H167.533L172.075 28.1516H177.778L173.236 32.6941Z" fill="#F7C895"/>
<path d="M160.069 45.8605L161.083 41.7613H164.169L160.069 45.8605Z" fill="#F2F8FE"/>
<path d="M164.169 41.7613H161.083L161.941 38.2856L167.533 32.694H173.236L164.169 41.7613Z" fill="#CBE4C5"/>
<path d="M147.876 58.0537L149.497 50.7304L161.941 38.2856L161.083 41.7612L160.069 45.8605L147.876 58.0537Z" fill="#CFE1FD"/>
<path d="M139.594 66.3358C138.806 65.1966 138.098 63.9983 137.48 62.7477L148.07 52.157L146.198 59.732L139.594 66.3358Z" fill="#D9E8FB"/>
<path d="M146.38 59.5493L148.236 51.9922L149.497 50.7304L147.876 58.0537L146.38 59.5493Z" fill="#A5C4F5"/>
<path d="M178.826 27.1036C177.668 26.3074 176.463 25.6069 175.225 25.0033L175.355 24.873C176.606 25.4911 177.804 26.1982 178.942 26.9878L178.826 27.1036Z" fill="#DD9891"/>
<path d="M149.292 47.2137L155.232 23.187C155.258 23.1792 155.287 23.1714 155.315 23.1636L149.447 47.0589L149.292 47.2137Z" fill="#CFE1FD"/>
<path d="M168.354 28.1516H164.447L165.889 22.3161C168.174 22.5634 170.433 23.0879 172.615 23.8908L168.354 28.1516Z" fill="#F3F7FB"/>
<path d="M163.811 32.6941H163.323L164.447 28.1516H168.353L163.811 32.6941Z" fill="#F7C895"/>
<path d="M163.164 33.3422L163.323 32.6941H163.811L163.164 33.3422Z" fill="#CBE4C5"/>
<path d="M150.555 45.9496L155.619 23.0823C157.98 22.462 160.405 22.1513 162.831 22.1513C163.852 22.1513 164.873 22.207 165.889 22.3161L164.447 28.1515L163.323 32.6941L163.164 33.3422L150.555 45.9496Z" fill="#CFE1FD"/>
<path d="M136.355 60.1496C136.32 60.0549 136.285 59.958 136.25 59.8623L142.673 30.5982C142.725 30.5436 142.78 30.489 142.835 30.4345C146.404 26.8653 150.69 24.4487 155.232 23.187L149.293 47.2136L136.355 60.1496ZM135.745 58.331C135.634 57.9557 135.529 57.5771 135.432 57.1951L141.769 31.5592C141.895 31.42 142.021 31.282 142.15 31.1439L135.745 58.331Z" fill="#D9E8FB"/>
<path d="M135.432 57.1951C134.87 54.9712 134.57 52.6426 134.57 50.2438C134.57 49.3752 134.609 48.5165 134.686 47.668C134.88 45.6768 135.285 43.7023 135.901 41.7802H136.205L136.848 39.2489C138.031 36.4982 139.672 33.8956 141.769 31.5592L135.432 57.1951Z" fill="#E5EEF8"/>
<path d="M149.447 47.0588L155.315 23.1636C155.416 23.1357 155.518 23.109 155.619 23.0823L150.555 45.9496L149.447 47.0588Z" fill="#A5C4F5"/>
<path d="M136.25 59.8622C136.068 59.3589 135.9 58.8477 135.745 58.331L142.15 31.1439C142.321 30.9601 142.495 30.7786 142.673 30.5982L136.25 59.8622Z" fill="#A5C4F5"/>
<path d="M136.205 41.7802H135.901C136.175 40.9249 136.49 40.0797 136.848 39.2489L136.205 41.7802Z" fill="#CFE1FD"/>
<path d="M134.686 47.668C135.987 33.2564 148.1 21.9631 162.85 21.9631C166.336 21.9631 169.673 22.5956 172.757 23.7482L172.616 23.8908C170.433 23.0879 168.174 22.5633 165.889 22.3161C164.874 22.207 163.852 22.1513 162.831 22.1513C160.406 22.1513 157.98 22.462 155.619 23.0823C155.518 23.109 155.417 23.1357 155.315 23.1636C155.287 23.1714 155.258 23.1792 155.232 23.187C150.69 24.4487 146.404 26.8653 142.835 30.4345C142.78 30.4891 142.726 30.5436 142.673 30.5982C142.495 30.7786 142.321 30.9601 142.15 31.1439C142.021 31.282 141.895 31.4201 141.769 31.5593C139.672 33.8957 138.032 36.4982 136.848 39.2489C136.49 40.0797 136.175 40.9249 135.901 41.7802C135.285 43.7023 134.88 45.6768 134.686 47.668Z" fill="#DD9891"/>
<path d="M162.85 78.5234C159.189 78.5234 155.692 77.8263 152.481 76.5601L153.504 72.4218L184.164 41.7613H189.755C190.964 45.522 191.365 49.4865 190.958 53.3809C189.397 67.5218 177.409 78.5234 162.85 78.5234Z" fill="#F2F8FE"/>
<path d="M189.755 41.7613H184.164L188.136 37.7889C188.781 39.0785 189.321 40.4071 189.755 41.7613Z" fill="#CBE4C5"/>
<path d="M152.481 76.5601C151.746 76.2695 151.027 75.9498 150.324 75.6024L153.504 72.4219L152.481 76.5601Z" fill="#CFE1FD"/>
<path d="M190.958 53.3809C191.364 49.4865 190.964 45.522 189.755 41.7613C189.321 40.4071 188.781 39.0785 188.136 37.7889L188.21 37.7165C190.078 41.4929 191.131 45.7447 191.131 50.2438C191.131 51.304 191.072 52.3508 190.958 53.3809Z" fill="#DD9891"/>
<path d="M5.15604 156.841H292.184C292.325 156.841 292.44 156.726 292.44 156.585C292.44 156.444 292.325 156.329 292.184 156.329H5.15604C5.01516 156.329 4.8999 156.444 4.8999 156.585C4.8999 156.726 5.01516 156.841 5.15604 156.841Z" fill="#283250"/>
</svg>
