<svg width="24" height="22" viewBox="0 0 24 22" fill="none" xmlns="http://www.w3.org/2000/svg">
<path fill-rule="evenodd" clip-rule="evenodd" d="M6.5 1.375C6.86468 1.375 7.21441 1.51987 7.47228 1.77773C7.73014 2.03559 7.875 2.38533 7.875 2.75V5.50001C7.875 5.86468 7.73014 6.21442 7.47228 6.47228C7.21441 6.73014 6.86468 6.87501 6.5 6.87501C6.13533 6.87501 5.78559 6.73014 5.52773 6.47228C5.26987 6.21442 5.125 5.86468 5.125 5.50001V2.75C5.125 2.38533 5.26987 2.03559 5.52773 1.77773C5.78559 1.51987 6.13533 1.375 6.5 1.375V1.375Z" stroke="white" stroke-width="1.375" stroke-linecap="round" stroke-linejoin="round"/>
<path d="M23 4.125H7.875" stroke="white" stroke-width="1.375" stroke-linecap="round" stroke-linejoin="round"/>
<path d="M5.12501 4.125H1" stroke="white" stroke-width="1.375" stroke-linecap="round" stroke-linejoin="round"/>
<path fill-rule="evenodd" clip-rule="evenodd" d="M6.5 15.125C6.86468 15.125 7.21441 15.2699 7.47228 15.5278C7.73014 15.7856 7.875 16.1354 7.875 16.5V19.25C7.875 19.6147 7.73014 19.9644 7.47228 20.2223C7.21441 20.4802 6.86468 20.625 6.5 20.625C6.13533 20.625 5.78559 20.4802 5.52773 20.2223C5.26987 19.9644 5.125 19.6147 5.125 19.25V16.5C5.125 16.1354 5.26987 15.7856 5.52773 15.5278C5.78559 15.2699 6.13533 15.125 6.5 15.125Z" stroke="white" stroke-width="1.375" stroke-linecap="round" stroke-linejoin="round"/>
<path d="M23 17.875H7.875" stroke="white" stroke-width="1.375" stroke-linecap="round" stroke-linejoin="round"/>
<path d="M5.12501 17.875H1" stroke="white" stroke-width="1.375" stroke-linecap="round" stroke-linejoin="round"/>
<path fill-rule="evenodd" clip-rule="evenodd" d="M17.5 8.25C17.8647 8.25 18.2144 8.39487 18.4723 8.65273C18.7301 8.91059 18.875 9.26033 18.875 9.625V12.375C18.875 12.7397 18.7301 13.0894 18.4723 13.3473C18.2144 13.6051 17.8647 13.75 17.5 13.75C17.1353 13.75 16.7856 13.6051 16.5277 13.3473C16.2699 13.0894 16.125 12.7397 16.125 12.375V9.625C16.125 9.26033 16.2699 8.91059 16.5277 8.65273C16.7856 8.39487 17.1353 8.25 17.5 8.25V8.25Z" stroke="white" stroke-width="1.375" stroke-linecap="round" stroke-linejoin="round"/>
<path d="M16.125 11H1" stroke="white" stroke-width="1.375" stroke-linecap="round" stroke-linejoin="round"/>
<path d="M23 11H18.875" stroke="white" stroke-width="1.375" stroke-linecap="round" stroke-linejoin="round"/>
</svg>
