<svg width="16" height="22" viewBox="0 0 16 22" fill="none" xmlns="http://www.w3.org/2000/svg">
<path fill-rule="evenodd" clip-rule="evenodd" d="M4.66663 9.00004C4.66663 8.82323 4.73686 8.65366 4.86189 8.52864C4.98691 8.40361 5.15648 8.33337 5.33329 8.33337H10.6666C10.8434 8.33337 11.013 8.40361 11.138 8.52864C11.2631 8.65366 11.3333 8.82323 11.3333 9.00004C11.3333 9.17685 11.2631 9.34642 11.138 9.47145C11.013 9.59647 10.8434 9.66671 10.6666 9.66671H5.33329C5.15648 9.66671 4.98691 9.59647 4.86189 9.47145C4.73686 9.34642 4.66663 9.17685 4.66663 9.00004Z" fill="#BDBDBD"/>
<path d="M0 3.00004C0 2.2928 0.280951 1.61452 0.781048 1.11442C1.28115 0.614326 1.95942 0.333374 2.66667 0.333374L13.3333 0.333374C14.0406 0.333374 14.7189 0.614326 15.219 1.11442C15.719 1.61452 16 2.2928 16 3.00004V21C15.9999 21.1206 15.9672 21.2389 15.9052 21.3424C15.8432 21.4458 15.7543 21.5305 15.648 21.5874C15.5417 21.6443 15.4219 21.6714 15.3015 21.6656C15.181 21.6598 15.0644 21.6215 14.964 21.5547L8 17.8014L1.036 21.5547C0.935607 21.6215 0.818974 21.6598 0.698522 21.6656C0.57807 21.6714 0.458311 21.6443 0.351999 21.5874C0.245688 21.5305 0.156805 21.4458 0.0948188 21.3424C0.032832 21.2389 6.22939e-05 21.1206 0 21V3.00004ZM2.66667 1.66671C2.31304 1.66671 1.97391 1.80718 1.72386 2.05723C1.47381 2.30728 1.33333 2.64642 1.33333 3.00004V19.7547L7.63067 16.4454C7.74008 16.3726 7.86857 16.3337 8 16.3337C8.13143 16.3337 8.25992 16.3726 8.36933 16.4454L14.6667 19.7547V3.00004C14.6667 2.64642 14.5262 2.30728 14.2761 2.05723C14.0261 1.80718 13.687 1.66671 13.3333 1.66671H2.66667Z" fill="#BDBDBD"/>
</svg>
